<svg width="161" height="181" viewBox="0 0 161 181" fill="none" xmlns="http://www.w3.org/2000/svg">
<path d="M126.28 57.7888H89.1102C89.0102 57.7888 88.9202 57.7888 88.8202 57.7688C88.7202 57.7588 88.6202 57.7388 88.5202 57.7288C88.2902 57.6888 88.0702 57.6388 87.8502 57.5688C87.5402 57.4588 87.2502 57.3088 86.9802 57.1388C86.7902 57.0088 86.6102 56.8688 86.4501 56.6988C86.3701 56.6188 86.2902 56.5388 86.2202 56.4588C86.1602 56.3888 86.1002 56.3188 86.0502 56.2388C85.9702 56.1388 85.8902 56.0288 85.8302 55.9188C85.7802 55.8388 85.7402 55.7688 85.7001 55.6888C85.6402 55.5688 85.5802 55.4388 85.5402 55.3088C85.5002 55.2188 85.4702 55.1188 85.4402 55.0188C85.4102 54.9288 85.3902 54.8288 85.3702 54.7288C85.3502 54.6388 85.3302 54.5488 85.3302 54.4488C85.3002 54.2888 85.2902 54.1288 85.2902 53.9588C85.2902 52.9088 85.7202 51.9488 86.4102 51.2588C87.0902 50.5588 88.0502 50.1288 89.1102 50.1288H121.98C121.16 40.3788 117.23 31.0288 110.71 23.4388C109.33 21.8288 109.51 19.4188 111.12 18.0388C111.96 17.3088 113.03 17.0188 114.06 17.1488C114.17 17.1588 114.28 17.1688 114.39 17.1988C114.4 17.1988 114.42 17.1988 114.43 17.2088C114.55 17.2288 114.68 17.2588 114.8 17.3088C114.89 17.3388 114.98 17.3688 115.07 17.4088C115.14 17.4288 115.22 17.4688 115.29 17.5088C115.75 17.7188 116.17 18.0388 116.52 18.4488C117.26 19.3088 117.97 20.1888 118.65 21.0788C119.33 21.9788 119.98 22.8888 120.6 23.8288C120.91 24.2888 121.21 24.7588 121.51 25.2388C122.4 26.6588 123.22 28.1188 123.97 29.6088C125.31 28.9688 126.66 28.3288 128.02 27.6688C129.38 27.0088 130.76 26.3288 132.13 25.6488C130.69 23.0388 129.87 20.0588 129.87 16.8888C129.87 15.0688 130.15 13.3088 130.65 11.6488C129.89 11.2588 129.12 10.8788 128.34 10.5188C127.62 10.1588 126.9 9.82884 126.17 9.49884C125.83 9.34884 125.48 9.18884 125.13 9.03884C123.44 8.29884 121.72 7.60884 119.99 6.95884C119.46 6.74884 118.93 6.55884 118.39 6.36883C118.08 6.25883 117.77 6.14884 117.46 6.03884C116.75 5.78884 116.05 5.55884 115.34 5.32884C115.25 5.29883 115.16 5.26884 115.07 5.24884C114.35 5.00884 113.63 4.78884 112.91 4.56884C112.88 4.55884 112.84 4.54884 112.81 4.53884C112.4 4.41884 111.99 4.29884 111.58 4.18884C111.44 4.13883 111.31 4.10884 111.17 4.06884C110.44 3.85884 109.7 3.65884 108.97 3.47884C107.71 3.14884 106.45 2.83884 105.18 2.56884C104.85 2.48884 104.51 2.41883 104.18 2.34883C103.5 2.19883 102.83 2.06884 102.15 1.93884C101.9 1.88884 101.66 1.83884 101.41 1.79884C100.86 1.69884 100.31 1.59884 99.7702 1.50884C99.2902 1.42884 98.8102 1.34884 98.3401 1.27884C97.6901 1.16884 97.0402 1.07884 96.3902 0.988835C95.4902 0.868835 94.5901 0.748835 93.7001 0.648835C91.9001 0.448835 90.1002 0.298835 88.3202 0.188835C87.3102 0.128835 86.3002 0.0788351 85.2902 0.0488351C70.2302 -0.421165 55.9802 2.49884 45.1302 8.91884C35.2302 14.7788 28.3402 23.3188 24.6802 34.0988C24.3502 35.0788 24.0502 36.0688 23.7702 37.0888C23.6302 37.5988 23.4902 38.1088 23.3702 38.6288C23.1502 39.5588 22.9402 40.5088 22.7602 41.4688C22.5302 42.6388 22.3402 43.8388 22.1902 45.0488C22.0502 46.0988 21.9402 47.1788 21.8502 48.2688C21.8002 48.8788 21.7602 49.4988 21.7302 50.1288H54.6602V50.1388C56.7802 50.1388 58.4902 51.8488 58.4902 53.9588C58.4902 56.0788 56.7802 57.7888 54.6602 57.7888H17.4902C16.5002 57.7888 15.6102 58.1888 14.9602 58.8388C14.3102 59.4888 13.9102 60.3888 13.9102 61.3788V68.7888C13.9102 69.7788 14.3102 70.6788 14.9602 71.3288C15.6102 71.9788 16.5002 72.3788 17.4902 72.3788H126.28C128.26 72.3788 129.87 70.7688 129.87 68.7888V61.3788C129.87 59.3988 128.26 57.7888 126.28 57.7888ZM71.8902 57.7888C70.4702 57.7888 69.2302 57.0188 68.5702 55.8688C68.5202 55.7788 68.4702 55.6988 68.4302 55.6088C68.2702 55.2688 68.1502 54.8988 68.1002 54.4988C68.0902 54.4388 68.0802 54.3688 68.0802 54.2988C68.0702 54.1888 68.0602 54.0788 68.0602 53.9588C68.0602 52.9088 68.4902 51.9488 69.1802 51.2588C69.8602 50.5588 70.8302 50.1288 71.8902 50.1288C72.1502 50.1288 72.4102 50.1588 72.6602 50.2088C72.7802 50.2388 72.9102 50.2688 73.0202 50.3088C73.1502 50.3388 73.2602 50.3788 73.3802 50.4388C73.4902 50.4788 73.6102 50.5388 73.7102 50.5988C73.8202 50.6488 73.9302 50.7188 74.0302 50.7888C74.6502 51.2088 75.1502 51.8088 75.4402 52.5188C75.4802 52.6188 75.5202 52.7188 75.5502 52.8188V52.8388C75.5902 52.9488 75.6202 53.0688 75.6402 53.1888C75.6602 53.2588 75.6702 53.3388 75.6802 53.4188C75.6902 53.4888 75.7002 53.5488 75.7002 53.6188C75.7102 53.7288 75.7202 53.8488 75.7202 53.9588C75.7202 56.0788 74.0002 57.7888 71.8902 57.7888Z" fill="white"/>
<path d="M114.231 80.0288H29.5506C28.8406 89.8288 28.9206 100.329 33.2906 103.509C33.7306 103.829 34.2406 104.099 34.8106 104.299C34.9806 104.359 35.1606 104.419 35.3406 104.469C35.3606 104.479 35.3906 104.489 35.4206 104.489C35.8106 104.599 36.2306 104.679 36.6806 104.739C36.7106 104.749 36.7306 104.749 36.7606 104.749C36.9806 104.779 37.2006 104.799 37.4406 104.819C37.6806 104.839 37.9406 104.849 38.2006 104.859C41.1306 104.919 44.9506 104.199 49.6206 102.689C50.9706 102.249 52.3906 101.749 53.8806 101.189C55.3706 100.619 56.9406 99.9888 58.5706 99.2988C62.7706 97.5088 67.2506 96.5988 71.8906 96.5988C76.5206 96.5988 81.0006 97.5088 85.2106 99.2988C86.8406 99.9988 88.4106 100.629 89.9006 101.189C91.3906 101.749 92.8106 102.249 94.1506 102.689C98.8306 104.199 102.641 104.919 105.571 104.859C105.831 104.849 106.091 104.839 106.341 104.819C106.561 104.809 106.781 104.779 106.991 104.759C107.041 104.749 107.091 104.749 107.131 104.739C107.551 104.679 107.951 104.599 108.321 104.499C108.411 104.479 108.481 104.459 108.561 104.429C108.701 104.389 108.831 104.349 108.961 104.299C109.541 104.099 110.051 103.829 110.491 103.509C114.851 100.329 114.941 89.8288 114.231 80.0288ZM48.9206 96.5988C46.8006 96.5988 45.0906 94.8788 45.0906 92.7688C45.0906 91.7088 45.5206 90.7588 46.2106 90.0588C46.9006 89.3688 47.8606 88.9388 48.9206 88.9388C51.0306 88.9388 52.7506 90.6588 52.7506 92.7688C52.7506 94.8788 51.0306 96.5988 48.9206 96.5988ZM94.8606 96.5988C92.7406 96.5988 91.0306 94.8788 91.0306 92.7688C91.0306 90.6588 92.7406 88.9388 94.8506 88.9388H94.8606C96.9706 88.9388 98.6906 90.6588 98.6906 92.7688C98.6906 94.8788 96.9706 96.5988 94.8606 96.5988Z" fill="white"/>
<path d="M143.78 90.4788C143.78 84.7188 138.83 80.0388 132.74 80.0388H132.02C134.13 85.8788 135.33 93.3188 135.78 100.519C140.39 99.2588 143.78 95.2388 143.78 90.4788Z" fill="white"/>
<path d="M0 90.4788C0 95.2388 3.38 99.2588 8 100.519C8.45 93.3188 9.65 85.8788 11.76 80.0388H11.05C4.95 80.0288 0 84.7188 0 90.4788Z" fill="white"/>
<path d="M137.529 16.8889C137.529 22.9589 142.739 27.8889 149.149 27.8889C155.559 27.8889 160.769 22.9589 160.769 16.8889C160.769 11.1989 156.189 6.50892 150.329 5.94892C149.939 5.90892 149.539 5.88892 149.139 5.88892C142.739 5.88892 137.529 10.8189 137.529 16.8889Z" fill="white"/>
<path d="M131.419 125.589C129.829 121.999 128.019 117.919 128.279 109.869C128.659 98.1288 126.819 86.3188 123.739 80.0288H121.899C122.879 94.2688 121.829 104.729 114.989 109.699C112.409 111.569 109.219 112.519 105.259 112.519C99.4291 112.519 91.9191 110.479 82.2091 106.339C78.9591 104.959 75.4791 104.259 71.8891 104.259C68.2891 104.259 64.8191 104.959 61.5591 106.339C51.8491 110.479 44.3391 112.519 38.5091 112.519C37.6291 112.519 36.7891 112.469 35.9791 112.369C35.5291 112.319 35.0991 112.259 34.6791 112.179C34.4591 112.139 34.2391 112.089 34.0291 112.049C33.9691 112.029 33.9191 112.019 33.8691 112.009C33.6191 111.949 33.3691 111.879 33.1291 111.809C32.7191 111.689 32.3291 111.559 31.9491 111.409C31.6891 111.309 31.4391 111.209 31.1991 111.099C31.1791 111.089 31.1591 111.089 31.1491 111.079C30.9491 110.989 30.7491 110.889 30.5591 110.789C30.4691 110.749 30.3891 110.699 30.2991 110.649C30.2191 110.619 30.1491 110.579 30.0791 110.529C29.8991 110.429 29.7291 110.329 29.5491 110.219C29.5391 110.209 29.5291 110.209 29.5291 110.199C29.2791 110.049 29.0291 109.879 28.7791 109.699C21.9391 104.729 20.8891 94.2688 21.8691 80.0288H20.0391C16.9491 86.3188 15.1091 98.1288 15.4891 109.869C15.7191 116.989 14.3391 120.999 12.9191 124.309C12.7391 124.749 12.5491 125.169 12.3591 125.589C11.8691 126.689 11.4191 127.699 11.0491 128.769C10.4391 130.569 10.0391 132.549 10.0391 135.439C10.0391 148.769 21.4191 159.619 35.3991 159.619C40.0791 159.619 44.0691 161.169 46.8291 163.979C47.0591 164.209 47.2891 164.449 47.4991 164.709C47.9291 165.209 48.3191 165.749 48.6691 166.319C48.8491 166.609 49.0091 166.899 49.1691 167.199C53.4891 175.479 62.1991 180.629 71.8891 180.629C81.5791 180.629 90.2791 175.479 94.5991 167.199C97.1191 162.379 102.139 159.619 108.369 159.619C122.359 159.619 133.729 148.769 133.729 135.439C133.729 130.819 132.709 128.509 131.419 125.589ZM86.6891 118.909C83.6391 124.179 77.9691 127.459 71.8891 127.459C65.7991 127.459 60.1291 124.179 57.0891 118.909C56.0291 117.079 56.6591 114.739 58.4891 113.679C58.9391 113.419 59.4191 113.259 59.8991 113.199C60.0591 113.179 60.2291 113.169 60.3891 113.169C60.5291 113.169 60.6791 113.179 60.8191 113.199C60.8791 113.199 60.9391 113.209 61.0091 113.219C61.1291 113.239 61.2491 113.269 61.3691 113.299C61.4891 113.329 61.6091 113.369 61.7191 113.409C61.7791 113.429 61.8391 113.449 61.8991 113.479C62.1091 113.569 62.3091 113.679 62.5091 113.809C62.6591 113.909 62.8091 114.019 62.9491 114.149C62.9691 114.159 62.9891 114.179 63.0091 114.199C63.0991 114.279 63.1791 114.369 63.2591 114.459C63.3491 114.549 63.4291 114.649 63.4991 114.759C63.5791 114.859 63.6491 114.969 63.7191 115.089C65.3991 117.989 68.5291 119.799 71.8891 119.799C75.2491 119.799 78.3791 117.989 80.0591 115.089C80.2591 114.739 80.4991 114.439 80.7791 114.189C80.8591 114.109 80.9491 114.039 81.0391 113.959C81.1491 113.879 81.2691 113.799 81.3891 113.729C81.4891 113.659 81.5991 113.609 81.7091 113.559C81.7391 113.529 81.7791 113.519 81.8191 113.499C81.8891 113.469 81.9691 113.439 82.0491 113.409C82.1491 113.369 82.2491 113.339 82.3491 113.309C82.3991 113.299 82.4391 113.279 82.4791 113.279C82.5691 113.259 82.6591 113.239 82.7491 113.229C82.8291 113.209 82.9191 113.199 83.0091 113.189C83.0391 113.179 83.0691 113.179 83.0991 113.179C83.1891 113.169 83.2791 113.169 83.3591 113.169C83.5291 113.169 83.6891 113.179 83.8591 113.199C84.2991 113.259 84.7291 113.389 85.1291 113.609C85.1791 113.619 85.2291 113.649 85.2791 113.679C85.5891 113.859 85.8591 114.069 86.0991 114.309C86.2191 114.429 86.3291 114.559 86.4291 114.689C86.6291 114.959 86.7991 115.249 86.9191 115.559C87.3491 116.609 87.2991 117.849 86.6891 118.909Z" fill="white"/>
</svg>
